<?xml version="1.0" encoding="UTF-8" standalone="no"?>
<!-- Created with Inkscape (http://www.inkscape.org/) -->
<svg
   xmlns:dc="http://purl.org/dc/elements/1.1/"
   xmlns:cc="http://creativecommons.org/ns#"
   xmlns:rdf="http://www.w3.org/1999/02/22-rdf-syntax-ns#"
   xmlns:svg="http://www.w3.org/2000/svg"
   xmlns="http://www.w3.org/2000/svg"
   xmlns:sodipodi="http://sodipodi.sourceforge.net/DTD/sodipodi-0.dtd"
   xmlns:inkscape="http://www.inkscape.org/namespaces/inkscape"
   width="64"
   height="106"
   id="svg2"
   sodipodi:version="0.32"
   inkscape:version="0.45+devel"
   version="1.0"
   sodipodi:docname="nota.svg"
   inkscape:output_extension="org.inkscape.output.svg.inkscape"
   inkscape:export-filename="/home/carles/Desktop/nota.png"
   inkscape:export-xdpi="90"
   inkscape:export-ydpi="90">
  <defs
     id="defs4">
    <inkscape:perspective
       sodipodi:type="inkscape:persp3d"
       inkscape:vp_x="0 : 526.18109 : 1"
       inkscape:vp_y="0 : 1000 : 0"
       inkscape:vp_z="744.09448 : 526.18109 : 1"
       inkscape:persp3d-origin="372.04724 : 350.78739 : 1"
       id="perspective10" />
    <filter
       inkscape:collect="always"
       id="filter3293"
       x="-0.13482692"
       width="1.2696538"
       y="-0.07333682"
       height="1.1466736">
      <feGaussianBlur
         inkscape:collect="always"
         stdDeviation="2.9987075"
         id="feGaussianBlur3295" />
    </filter>
  </defs>
  <sodipodi:namedview
     id="base"
     pagecolor="#000000"
     bordercolor="#666666"
     borderopacity="1.0"
     inkscape:pageopacity="0"
     inkscape:pageshadow="2"
     inkscape:zoom="2"
     inkscape:cx="25.943954"
     inkscape:cy="53.821169"
     inkscape:document-units="px"
     inkscape:current-layer="layer1"
     showgrid="false"
     showguides="true"
     inkscape:guide-bbox="true"
     inkscape:window-width="1274"
     inkscape:window-height="752"
     inkscape:window-x="6"
     inkscape:window-y="48"
     borderlayer="false" />
  <metadata
     id="metadata7">
    <rdf:RDF>
      <cc:Work
         rdf:about="">
        <dc:format>image/svg+xml</dc:format>
        <dc:type
           rdf:resource="http://purl.org/dc/dcmitype/StillImage" />
      </cc:Work>
    </rdf:RDF>
  </metadata>
  <g
     inkscape:label="Livello 1"
     inkscape:groupmode="layer"
     id="layer1"
     transform="translate(-306.78302,-226.70537)">
    <path
       id="text2436"
       style="font-size:140.15353394px;font-style:normal;font-weight:normal;fill:#ffffff;fill-opacity:1;stroke:none;font-family:FreeSerif"
       d="m 340.8642,255.13165 c 9.07118,0.33437 16.73789,7.16974 20.75,14.96875 -4.53982,-12.07014 -17.96112,-18.77591 -20.75,-31.71875 0,5.58333 0,11.16667 0,16.75 z m -11.125,51.1875 c -8.12736,0.44125 -18.40997,8.29532 -14.875,17.15625 5.44012,6.44654 15.92604,2.43457 20.96875,-2.59375 3.84002,-3.74755 5.76653,-13.0615 -1.1875,-14.25 -1.60159,-0.32791 -3.2747,-0.39356 -4.90625,-0.3125 z m 11.50746,-75.6812 c 0.18246,1.87063 0.47901,3.58149 0.88965,5.13257 0.4562,1.55127 0.91242,2.98839 1.36868,4.31137 0.63869,2.32685 1.66521,4.47112 3.07955,6.43282 l 2.395202,2.9426767 3.3532828,4.0376262 6.1590908,7.185606 c 4.6534844,6.0679111 6.9802544,12.409491 6.9803044,19.024751 -5e-05,1.59685 -0.13692,3.35333 -0.41061,5.26944 -0.27379,1.91621 -0.82126,3.9008 -1.64242,5.95379 -0.6844,1.59684 -1.23187,2.94271 -1.64243,4.03763 -0.41065,1.04936 -1.00375,2.23555 -1.77929,3.55858 l -2.05303,0.13687 2.3952,-6.15909 c 0.27369,-0.8668 0.54743,-1.71082 0.82121,-2.53207 0.27369,-0.86679 0.50181,-1.80206 0.68435,-2.80581 l 0.4106,-3.83232 0.13687,-1.64242 0,-2.8058081 -0.54747,-2.2583419 -1.09495,-3.35328 c -0.95813,-2.87418 -2.55493,-5.4975 -4.79041,-7.86995 -2.05307,-2.60044 -4.28859,-4.5166 -6.70656,-5.74848 -1.3231,-0.7299 -2.7146,-1.323 -4.1745,-1.7793 -1.41434,-0.50178 -2.69178,-0.7527 -3.83232,-0.75277 l 0,55.705555 c -3e-05,2.874255 -1.02654,5.611625 -3.07954,8.212115 -1.23185,2.05304 -3.55861,3.87795 -6.98031,5.47475 -2.91988,1.50556 -5.97661,2.25833 -9.1702,2.25833 -2.87425,0 -5.20101,-0.75277 -6.9803,-2.25833 -1.96179,-1.36868 -2.94268,-3.46733 -2.94268,-6.29596 0,-1.4143 0.2053,-2.78298 0.61591,-4.10606 0.41061,-1.36867 1.14057,-2.66892 2.1899,-3.90076 0.91245,-1.09493 1.96178,-2.14425 3.14798,-3.14798 1.18619,-1.0493 2.55487,-1.96176 4.10606,-2.73737 3.10234,-1.36866 5.90815,-2.05301 8.41742,-2.05303 4.0148,2e-05 6.77498,0.72999 8.28056,2.1899 l 0,-50.162373 0,-25.662879 2.395202,0" />
    <path
       style="font-size:140.15353393999998843px;font-style:normal;font-weight:normal;fill:#ffffff;fill-opacity:0.99557525;stroke:none;font-family:FreeSerif;filter:url(#filter3293)"
       d="m 341.24666,230.63794 c 0.18247,1.87064 0.47901,3.58149 0.88965,5.13258 0.4562,1.55127 0.91243,2.98839 1.36869,4.31136 0.63868,2.32686 1.6652,4.47113 3.07954,6.43283 l 2.395202,2.9426767 3.3532828,4.0376262 6.1590908,7.185606 c 4.6534844,6.0679111 6.9802544,12.409481 6.9803044,19.024751 -5e-05,1.59684 -0.13692,3.35332 -0.41061,5.26944 -0.27379,1.9162 -0.82126,3.9008 -1.64242,5.95379 -0.68439,1.59684 -1.23187,2.94271 -1.64242,4.03762 -0.41066,1.04936 -1.00376,2.23556 -1.7793,3.55859 l -2.05303,0.13687 2.3952,-6.15909 c 0.27369,-0.8668 0.54743,-1.71082 0.82122,-2.53207 0.27368,-0.8668 0.5018,-1.80207 0.68434,-2.80581 l 0.41061,-3.83232 0.13686,-1.64243 0,-2.8058081 -0.54747,-2.2583319 -1.09495,-3.35328 c -0.95813,-2.87419 -2.55493,-5.4975 -4.7904,-7.86995 -2.05308,-2.60044 -4.2886,-4.5166 -6.70657,-5.74849 -1.3231,-0.72989 -2.7146,-1.32299 -4.17449,-1.77929 -1.41435,-0.50178 -2.69179,-0.75271 -3.83233,-0.75278 l 0,55.705555 c -3e-05,2.874255 -1.02654,5.611625 -3.07954,8.212125 -1.23185,2.05303 -3.55861,3.87795 -6.98031,5.47475 -2.91988,1.50555 -5.97661,2.25833 -9.1702,2.25833 -2.87425,0 -5.20101,-0.75278 -6.9803,-2.25833 -1.96179,-1.36869 -2.94268,-3.46734 -2.94268,-6.29596 0,-1.4143 0.20531,-2.78299 0.61591,-4.10606 0.41061,-1.36868 1.14057,-2.66893 2.1899,-3.90076 0.91246,-1.09493 1.96178,-2.14426 3.14798,-3.14798 1.18619,-1.04931 2.55487,-1.96176 4.10606,-2.73738 3.10234,-1.36866 5.90815,-2.053 8.41743,-2.05303 4.01479,3e-05 6.77497,0.72999 8.28055,2.1899 l 0,-50.162373 0,-25.662879 2.395202,0"
       id="text2442" />
  </g>
</svg>
