<?xml version="1.0" encoding="UTF-8" standalone="no"?>
<!-- Created with Inkscape (http://www.inkscape.org/) -->
<svg
   xmlns:dc="http://purl.org/dc/elements/1.1/"
   xmlns:cc="http://creativecommons.org/ns#"
   xmlns:rdf="http://www.w3.org/1999/02/22-rdf-syntax-ns#"
   xmlns:svg="http://www.w3.org/2000/svg"
   xmlns="http://www.w3.org/2000/svg"
   xmlns:sodipodi="http://sodipodi.sourceforge.net/DTD/sodipodi-0.dtd"
   xmlns:inkscape="http://www.inkscape.org/namespaces/inkscape"
   width="64"
   height="106"
   id="svg2"
   sodipodi:version="0.32"
   inkscape:version="0.45+devel"
   version="1.0"
   sodipodi:docname="nota.svg"
   inkscape:output_extension="org.inkscape.output.svg.inkscape"
   inkscape:export-filename="/builder/freevial/data/images/nota.png"
   inkscape:export-xdpi="90"
   inkscape:export-ydpi="90">
  <sodipodi:namedview
     id="base"
     pagecolor="#000000"
     bordercolor="#666666"
     borderopacity="1.0"
     inkscape:pageopacity="0"
     inkscape:pageshadow="2"
     inkscape:zoom="3.9117647"
     inkscape:cx="76.742533"
     inkscape:cy="54"
     inkscape:document-units="px"
     inkscape:current-layer="layer1"
     showgrid="false"
     showguides="true"
     inkscape:guide-bbox="true"
     inkscape:window-width="1274"
     inkscape:window-height="752"
     inkscape:window-x="6"
     inkscape:window-y="48"
     borderlayer="false" />
  <defs
     id="defs4">
    <inkscape:perspective
       id="perspective10"
       inkscape:persp3d-origin="372.04724 : 350.78739 : 1"
       inkscape:vp_z="744.09448 : 526.18109 : 1"
       inkscape:vp_y="0 : 1000 : 0"
       inkscape:vp_x="0 : 526.18109 : 1"
       sodipodi:type="inkscape:persp3d" />
    <filter
       inkscape:collect="always"
       id="filter3430"
       x="-0.13624616"
       width="1.2724923"
       y="-0.074108785"
       height="1.1482176">
      <feGaussianBlur
         inkscape:collect="always"
         stdDeviation="3.1694473"
         id="feGaussianBlur3432" />
    </filter>
  </defs>
  <metadata
     id="metadata7">
    <rdf:RDF>
      <cc:Work
         rdf:about="">
        <dc:format>image/svg+xml</dc:format>
        <dc:type
           rdf:resource="http://purl.org/dc/dcmitype/StillImage" />
      </cc:Work>
    </rdf:RDF>
  </metadata>
  <g
     transform="translate(-306.78302,-226.70537)"
     id="layer1"
     inkscape:groupmode="layer"
     inkscape:label="Livello 1">
    <path
       sodipodi:nodetypes="cccccccsscccccccccccccccccccscsccccscccc"
       d="m 341.30742,228.33927 c 0.19083,1.95655 0.501,3.74599 0.93049,5.36829 0.47717,1.62253 0.95434,3.12565 1.43156,4.50939 0.66801,2.43373 1.74168,4.67647 3.22099,6.72828 l 2.50521,3.07782 3.50728,4.22307 6.44198,7.51563 c 4.86721,6.34659 7.30084,12.97944 7.30088,19.89851 -5e-05,1.6702 -0.14321,3.50735 -0.42947,5.51146 -0.28636,2.00422 -0.85897,4.07996 -1.71785,6.22724 -0.71582,1.67018 -1.28844,3.07785 -1.71787,4.22306 -0.4295,1.09756 -1.04985,2.33823 -1.861,3.72202 l -2.14732,0.14316 2.5052,-6.44197 c 0.28627,-0.90661 0.57257,-1.78938 0.85893,-2.64836 0.28627,-0.9066 0.52486,-1.88482 0.71579,-2.93467 l 0.42946,-4.00834 0.14315,-1.71785 0,-2.9346736 -0.57261,-2.3620664 -1.14525,-3.50728 c -1.00213,-3.00618 -2.67228,-5.75 -5.01042,-8.23142 -2.14736,-2.71986 -4.48555,-4.72402 -7.01457,-6.01248 -1.38388,-0.76342 -2.83929,-1.38376 -4.36624,-1.86102 -1.4793,-0.52482 -2.81541,-0.78728 -4.00832,-0.78735 l 0,58.264007 c -4e-05,3.006263 -1.0737,5.869363 -3.22099,8.589283 -1.28842,2.14734 -3.72205,4.05607 -7.30091,5.7262 -3.05397,1.57471 -6.25109,2.36205 -9.59136,2.36205 -3.00626,0 -5.43988,-0.78734 -7.30088,-2.36205 -2.0519,-1.43154 -3.07784,-3.62658 -3.07784,-6.58513 0,-1.47926 0.21473,-2.9108 0.6442,-4.29464 0.42946,-1.43154 1.19296,-2.7915 2.29047,-4.07992 0.95436,-1.14522 2.05189,-2.24273 3.29257,-3.29255 1.24066,-1.0975 2.6722,-2.05186 4.29464,-2.86311 3.24483,-1.4315 6.1795,-2.14728 8.80402,-2.14731 4.19918,3e-05 7.08615,0.76351 8.66086,2.29048 l 0,-52.466237 0,-26.841527 2.5052091,0"
       style="font-size:140.15353393999998843px;font-style:normal;font-weight:normal;fill:#ffffff;fill-opacity:1;stroke:none;font-family:FreeSerif;opacity:0.5982906"
       id="text2436" />
    <path
       id="path3320"
       style="font-size:140.15353393999998843px;font-style:normal;font-weight:normal;opacity:0.5982906;fill:#ffffff;fill-opacity:1;stroke:none;filter:url(#filter3430);font-family:FreeSerif"
       d="m 343.30742,228.33927 c 0.19083,1.95655 0.501,3.74599 0.93049,5.36829 0.47717,1.62253 0.95434,3.12565 1.43156,4.50939 0.66801,2.43373 1.74168,4.67647 3.22099,6.72828 l 2.50521,3.07782 3.50728,4.22307 6.44198,7.51563 c 4.86721,6.34659 7.30084,12.97944 7.30088,19.89851 -5e-05,1.6702 -0.14321,3.50735 -0.42947,5.51146 -0.28636,2.00422 -0.85897,4.07996 -1.71785,6.22724 -0.71582,1.67018 -1.28844,3.07785 -1.71787,4.22306 -0.4295,1.09756 -1.04985,2.33823 -1.861,3.72202 l -2.14732,0.14316 2.5052,-6.44197 c 0.28627,-0.90661 0.57257,-1.78938 0.85893,-2.64836 0.28627,-0.9066 0.52486,-1.88482 0.71579,-2.93467 l 0.42946,-4.00834 0.14315,-1.71785 0,-2.9346736 -0.57261,-2.3620664 -1.14525,-3.50728 c -1.00213,-3.00618 -2.67228,-5.75 -5.01042,-8.23142 -2.14736,-2.71986 -4.48555,-4.72402 -7.01457,-6.01248 -1.38388,-0.76342 -2.83929,-1.38376 -4.36624,-1.86102 -1.4793,-0.52482 -2.81541,-0.78728 -4.00832,-0.78735 l 0,58.264007 c -4e-05,3.006263 -1.0737,5.869363 -3.22099,8.589283 -1.28842,2.14734 -3.72205,4.05607 -7.30091,5.7262 -3.05397,1.57471 -6.25109,2.36205 -9.59136,2.36205 -3.00626,0 -5.43988,-0.78734 -7.30088,-2.36205 -2.0519,-1.43154 -3.07784,-3.62658 -3.07784,-6.58513 0,-1.47926 0.21473,-2.9108 0.6442,-4.29464 0.42946,-1.43154 1.19296,-2.7915 2.29047,-4.07992 0.95436,-1.14522 2.05189,-2.24273 3.29257,-3.29255 1.24066,-1.0975 2.6722,-2.05186 4.29464,-2.86311 3.24483,-1.4315 6.1795,-2.14728 8.80402,-2.14731 4.19918,3e-05 7.08615,0.76351 8.66086,2.29048 l 0,-52.466237 0,-26.841527 2.5052091,0"
       sodipodi:nodetypes="cccccccsscccccccccccccccccccscsccccscccc" />
  </g>
</svg>
