<?xml version="1.0" encoding="UTF-8" standalone="no"?>
<!-- Created with Inkscape (http://www.inkscape.org/) -->
<svg
   xmlns:dc="http://purl.org/dc/elements/1.1/"
   xmlns:cc="http://web.resource.org/cc/"
   xmlns:rdf="http://www.w3.org/1999/02/22-rdf-syntax-ns#"
   xmlns:svg="http://www.w3.org/2000/svg"
   xmlns="http://www.w3.org/2000/svg"
   xmlns:xlink="http://www.w3.org/1999/xlink"
   xmlns:sodipodi="http://sodipodi.sourceforge.net/DTD/sodipodi-0.dtd"
   xmlns:inkscape="http://www.inkscape.org/namespaces/inkscape"
   width="152.36031"
   height="158.04332"
   id="svg2"
   sodipodi:version="0.32"
   inkscape:version="0.45+devel"
   sodipodi:docbase="/home/carles/Desktop"
   sodipodi:docname="cubfreevial.svg"
   inkscape:output_extension="org.inkscape.output.svg.inkscape"
   version="1.0">
  <defs
     id="defs4">
    <linearGradient
       id="linearGradient3759">
      <stop
         style="stop-color:#0600ff;stop-opacity:1"
         offset="0"
         id="stop3761" />
      <stop
         style="stop-color:#0200ac;stop-opacity:1"
         offset="1"
         id="stop3763" />
    </linearGradient>
    <linearGradient
       id="linearGradient3751">
      <stop
         id="stop3753"
         offset="0"
         style="stop-color:#ff0000;stop-opacity:1;" />
      <stop
         id="stop3755"
         offset="1"
         style="stop-color:#ac0000;stop-opacity:1;" />
    </linearGradient>
    <linearGradient
       id="linearGradient3741">
      <stop
         style="stop-color:#ffff00;stop-opacity:1;"
         offset="0"
         id="stop3743" />
      <stop
         style="stop-color:#acac00;stop-opacity:1;"
         offset="1"
         id="stop3745" />
    </linearGradient>
    <linearGradient
       id="linearGradient3709">
      <stop
         style="stop-color:#fcff2a;stop-opacity:1;"
         offset="0"
         id="stop3711" />
      <stop
         style="stop-color:#abad00;stop-opacity:1;"
         offset="1"
         id="stop3713" />
    </linearGradient>
    <linearGradient
       id="linearGradient3697">
      <stop
         style="stop-color:#2aff2b;stop-opacity:1;"
         offset="0"
         id="stop3699" />
      <stop
         style="stop-color:#00ad00;stop-opacity:1;"
         offset="1"
         id="stop3701" />
    </linearGradient>
    <linearGradient
       id="linearGradient3687">
      <stop
         id="stop3689"
         offset="0"
         style="stop-color:#ff2af3;stop-opacity:1;" />
      <stop
         id="stop3691"
         offset="1"
         style="stop-color:#ad00a3;stop-opacity:1;" />
    </linearGradient>
    <linearGradient
       id="linearGradient2911">
      <stop
         style="stop-color:#ff7f2a;stop-opacity:1;"
         offset="0"
         id="stop2913" />
      <stop
         style="stop-color:#ad4500;stop-opacity:1;"
         offset="1"
         id="stop2915" />
    </linearGradient>
    <linearGradient
       inkscape:collect="always"
       xlink:href="#linearGradient2911"
       id="linearGradient2917"
       x1="100.69517"
       y1="44.153614"
       x2="90.278427"
       y2="66.723221"
       gradientUnits="userSpaceOnUse" />
    <linearGradient
       inkscape:collect="always"
       xlink:href="#linearGradient3687"
       id="linearGradient3304"
       gradientUnits="userSpaceOnUse"
       x1="55.491367"
       y1="75.946159"
       x2="37.500271"
       y2="100.05679" />
    <linearGradient
       inkscape:collect="always"
       xlink:href="#linearGradient3697"
       id="linearGradient3703"
       gradientUnits="userSpaceOnUse"
       x1="89.864861"
       y1="93.623955"
       x2="83.658958"
       y2="130.50189" />
    <linearGradient
       inkscape:collect="always"
       xlink:href="#linearGradient3741"
       id="linearGradient3747"
       gradientUnits="userSpaceOnUse"
       x1="25.215504"
       y1="969.86584"
       x2="17.677794"
       y2="995.29645" />
    <linearGradient
       inkscape:collect="always"
       xlink:href="#linearGradient3751"
       id="linearGradient3749"
       gradientUnits="userSpaceOnUse"
       x1="109.8764"
       y1="1019.9529"
       x2="102.62943"
       y2="1043.8215" />
    <linearGradient
       inkscape:collect="always"
       xlink:href="#linearGradient3759"
       id="linearGradient3757"
       gradientUnits="userSpaceOnUse"
       x1="109.53224"
       y1="921.25183"
       x2="104.10258"
       y2="934.80847" />
  </defs>
  <sodipodi:namedview
     id="base"
     pagecolor="#ffffff"
     bordercolor="#666666"
     borderopacity="1.0"
     gridtolerance="10000"
     guidetolerance="10"
     objecttolerance="10"
     inkscape:pageopacity="0.0"
     inkscape:pageshadow="2"
     inkscape:zoom="2.0364529"
     inkscape:cx="148.75528"
     inkscape:cy="63.757869"
     inkscape:document-units="px"
     inkscape:current-layer="layer1"
     showguides="true"
     inkscape:guide-bbox="true"
     inkscape:window-width="825"
     inkscape:window-height="750"
     inkscape:window-x="445"
     inkscape:window-y="22" />
  <metadata
     id="metadata7">
    <rdf:RDF>
      <cc:Work
         rdf:about="">
        <dc:format>image/svg+xml</dc:format>
        <dc:type
           rdf:resource="http://purl.org/dc/dcmitype/StillImage" />
      </cc:Work>
    </rdf:RDF>
  </metadata>
  <g
     inkscape:label="Layer 1"
     inkscape:groupmode="layer"
     id="layer1"
     transform="translate(3.6557093e-6,-894.31887)">
    <path
       id="path2810"
       d="M 112.855,904.7465 C 107.43535,904.7465 102.88356,908.45171 101.55524,913.45523 L 95.773416,928.90543 C 94.964446,930.49565 94.501886,932.30211 94.501886,934.20744 C 94.501886,940.66662 99.750306,945.89105 106.2095,945.89105 C 110.68825,945.89105 114.583,943.37629 116.54961,939.67738 L 116.5736,939.67738 L 116.69356,939.3655 C 117.04809,938.6487 117.33056,937.90077 117.53324,937.11034 L 123.33906,921.66015 C 124.12204,920.09032 124.5626,918.3265 124.5626,916.4541 C 124.5626,909.99491 119.31419,904.7465 112.855,904.7465 z"
       style="color:#000000;fill:url(#linearGradient3757);fill-opacity:1;fill-rule:evenodd;stroke:#000000;stroke-width:0.38385585000000000;stroke-linecap:butt;stroke-linejoin:miter;marker:none;marker-start:none;marker-mid:none;marker-end:none;stroke-miterlimit:4;stroke-dasharray:none;stroke-dashoffset:0;stroke-opacity:1;visibility:visible;display:inline;overflow:visible;opacity:1;enable-background:accumulate" />
    <path
       style="color:#000000;fill:url(#linearGradient2917);fill-opacity:1;fill-rule:evenodd;stroke:#000000;stroke-width:0.38385585000000000;stroke-linecap:butt;stroke-linejoin:miter;marker:none;marker-start:none;marker-mid:none;marker-end:none;stroke-miterlimit:4;stroke-dashoffset:0;stroke-opacity:1;visibility:visible;display:inline;overflow:visible"
       d="M 84.46875,21.625 C 76.982621,21.625 69.924942,23.32146 63.5625,26.28125 L 56.90625,44 L 67.03125,61.6875 C 70.441182,60.283459 74.179242,59.5 78.09375,59.5 C 92.735471,59.500001 104.84925,70.35119 106.875,84.4375 L 127.15625,84.6875 L 133.8125,66.96875 C 132.91108,55.371201 127.92109,44.88804 120.3125,36.9375 C 118.01973,38.122711 115.44492,38.8125 112.6875,38.8125 C 103.76651,38.812501 96.45927,31.77606 96,22.96875 C 92.30625,22.09329 88.431365,21.625 84.46875,21.625 z"
       transform="translate(-3.6557093e-6,894.31887)"
       id="path3017"
       sodipodi:nodetypes="ccccsccccscc" />
    <path
       style="color:#000000;fill:url(#linearGradient3703);fill-opacity:1;fill-rule:evenodd;stroke:#000000;stroke-width:0.38385585000000000;stroke-linecap:butt;stroke-linejoin:miter;marker:none;marker-start:none;marker-mid:none;marker-end:none;stroke-miterlimit:4;stroke-dashoffset:0;stroke-opacity:1;visibility:visible;display:inline;overflow:visible;opacity:1;stroke-dasharray:none;enable-background:accumulate"
       d="M 113.5625,74.875 C 111.60885,89.038891 99.449375,99.9375 84.75,99.9375 C 80.881382,99.937498 77.188927,99.18448 73.8125,97.8125 L 63.9375,115.4375 L 57.28125,133.1875 C 63.5466,136.0387 70.50385,137.65625 77.84375,137.65625 C 81.870946,137.65625 85.751451,137.1533 89.5,136.25 L 92.731407,127.61438 C 95.768933,123.52387 100.6346,120.875 106.125,120.875 C 108.74767,120.875 111.25962,121.4835 113.46875,122.5625 C 127.18193,109.96109 131.45603,98.60202 133.75,75.125 L 113.5625,74.875 z"
       id="path2982"
       sodipodi:nodetypes="cscccscssccc"
       transform="translate(-3.6557093e-6,894.31887)" />
    <path
       sodipodi:nodetypes="cc"
       id="path2907"
       d="M 120.10157,999.20667 L 113.36082,1016.9043"
       style="opacity:1;color:#000000;fill:#0000ff;fill-opacity:1;fill-rule:evenodd;stroke:#000000;stroke-width:0.49999997;stroke-linecap:butt;stroke-linejoin:miter;marker:none;marker-start:none;marker-mid:none;marker-end:none;stroke-miterlimit:4;stroke-dasharray:none;stroke-dashoffset:0;stroke-opacity:1;visibility:visible;display:inline;overflow:visible;enable-background:accumulate" />
    <path
       style="color:#000000;fill:url(#linearGradient3304);fill-opacity:1;fill-rule:evenodd;stroke:#000000;stroke-width:0.38385585000000000;stroke-linecap:butt;stroke-linejoin:miter;stroke-miterlimit:4;stroke-dashoffset:0;stroke-opacity:1;marker:none;marker-start:none;marker-mid:none;marker-end:none;visibility:visible;display:inline;overflow:visible;opacity:1;stroke-dasharray:none;enable-background:accumulate"
       d="M 56.46875,30.3125 C 47.225409,36.642799 40.235237,45.98691 37,56.9375 L 30.34375,74.6875 C 34.145157,76.928167 36.997236,80.64113 38.09375,85.03125 C 37.831251,85.214968 37.554478,85.393711 37.28125,85.5625 L 30.625,103.28125 C 34.011122,113.95652 40.985592,123.07075 50.125,129.21875 L 60.09375,111.4375 L 66.75,93.71875 C 58.87608,86.989948 55.503616,78.268485 56.0625,69.625 C 57.250803,68.243813 58.543538,66.98026 59.96875,65.84375 L 66.625,48.09375 L 56.46875,30.3125 z"
       id="path2834"
       sodipodi:nodetypes="ccccccccccccc"
       transform="translate(-3.6557093e-6,894.31887)" />
    <path
       style="color:#000000;fill:url(#linearGradient3747);fill-opacity:1;fill-rule:evenodd;stroke:#000000;stroke-width:0.38385585000000000;stroke-linecap:butt;stroke-linejoin:miter;marker:none;marker-start:none;marker-mid:none;marker-end:none;stroke-miterlimit:4;stroke-dasharray:none;stroke-dashoffset:0;stroke-opacity:1;visibility:visible;display:inline;overflow:visible;opacity:1;enable-background:accumulate"
       d="M 28.538255,953.95994 C 23.118596,953.95994 18.566812,957.66516 17.238499,962.66867 L 11.45667,978.11887 C 10.647709,979.7091 10.185148,981.51556 10.185148,983.42088 C 10.185148,989.88007 15.433562,995.10449 21.892751,995.10449 C 26.371498,995.10449 30.266258,992.58974 32.232868,988.89082 L 32.256859,988.89082 L 32.376814,988.57894 C 32.731343,987.86215 33.013815,987.11421 33.216498,986.32379 L 39.022318,970.87359 C 39.805287,969.30377 40.245859,967.53994 40.245859,965.66755 C 40.245859,959.20836 34.997444,953.95994 28.538255,953.95994 z"
       id="path2994" />
    <path
       style="color:#000000;fill:url(#linearGradient3749);fill-opacity:1.0;fill-rule:evenodd;stroke:#000000;stroke-width:0.38385585000000000;stroke-linecap:butt;stroke-linejoin:miter;marker:none;marker-start:none;marker-mid:none;marker-end:none;stroke-miterlimit:4;stroke-dasharray:none;stroke-dashoffset:0;stroke-opacity:1;visibility:visible;display:inline;overflow:visible;opacity:1;enable-background:accumulate"
       d="M 113.19915,1002.4851 C 107.7795,1002.4851 103.22771,1006.1903 101.89939,1011.1938 L 96.117566,1026.644 C 95.308596,1028.2342 94.846036,1030.0406 94.846036,1031.946 C 94.846036,1038.4052 100.09446,1043.6296 106.55365,1043.6296 C 111.0324,1043.6296 114.92715,1041.1148 116.89376,1037.4159 L 116.91775,1037.4159 L 117.03771,1037.1041 C 117.39224,1036.3872 117.67471,1035.6393 117.87739,1034.8489 L 123.68321,1019.3987 C 124.46619,1017.8289 124.90675,1016.0651 124.90675,1014.1926 C 124.90675,1007.7335 119.65834,1002.4851 113.19915,1002.4851 z"
       id="path2812" />
    <path
       sodipodi:type="arc"
       style="color:#000000;fill:#ffff00;fill-opacity:1;fill-rule:evenodd;stroke:#000000;stroke-width:0.34580752;stroke-linecap:butt;stroke-linejoin:miter;marker:none;marker-start:none;marker-mid:none;marker-end:none;stroke-miterlimit:4;stroke-dasharray:none;stroke-dashoffset:0;stroke-opacity:1;visibility:visible;display:inline;overflow:visible;opacity:1;enable-background:accumulate"
       id="path2814"
       sodipodi:cx="130.4519"
       sodipodi:cy="185.31822"
       sodipodi:rx="10.541568"
       sodipodi:ry="10.541568"
       d="M 140.99347,185.31822 A 10.541568,10.541568 0 1 1 119.91034,185.31822 A 10.541568,10.541568 0 1 1 140.99347,185.31822 z"
       transform="matrix(1.1100274,0,0,1.1100274,-116.07088,759.98745)" />
    <path
       id="path2217"
       d="M 56.565012,924.70476 C 47.32167,931.03506 40.343556,940.40816 37.108318,951.35875 C 42.035431,954.26294 45.337229,959.6239 45.337229,965.75334 C 45.337229,971.75883 42.158856,977.01384 37.396211,979.95601 C 40.782334,990.63128 47.737486,999.74226 56.876895,1005.8902 L 66.857146,988.11296 C 60.106342,982.78794 55.77331,974.53767 55.77331,965.27352 C 55.77331,956.06436 60.051758,947.83725 66.737191,942.50607 L 56.565012,924.70476 z"
       style="color:#000000;fill:#ff2af3;fill-opacity:1;fill-rule:evenodd;stroke:#000000;stroke-width:0.38385585000000000;stroke-linecap:butt;stroke-linejoin:miter;marker:none;marker-start:none;marker-mid:none;marker-end:none;stroke-miterlimit:4;stroke-dashoffset:0;stroke-opacity:1;visibility:visible;display:inline;overflow:visible" />
    <path
       style="color:#000000;fill:#00ff00;fill-opacity:1;fill-rule:evenodd;stroke:#000000;stroke-width:0.38385585000000000;stroke-linecap:butt;stroke-linejoin:miter;marker:none;marker-start:none;marker-mid:none;marker-end:none;stroke-miterlimit:4;stroke-dashoffset:0;stroke-opacity:1;visibility:visible;display:inline;overflow:visible;opacity:1;stroke-dasharray:none;enable-background:accumulate"
       d="M 113.55993,969.1922 C 111.60628,983.35609 99.446129,994.2628 84.746749,994.2628 C 80.878139,994.2628 77.183289,993.49954 73.806859,992.12756 L 63.922569,1009.761 C 70.187919,1012.6121 77.142949,1014.2232 84.482849,1014.2232 C 88.510049,1014.2232 92.417919,1013.7351 96.166459,1012.8318 C 96.834549,1004.2256 104.01557,997.45351 112.79222,997.45351 C 115.41489,997.45351 117.90034,998.05391 120.10947,999.13291 C 127.71834,991.28108 132.73699,980.94338 133.76034,969.4561 L 113.55993,969.1922 z"
       id="path2895" />
    <path
       transform="matrix(1.1100274,0,0,1.1100274,-31.754135,808.34053)"
       d="M 140.99347,185.31822 A 10.541568,10.541568 0 1 1 119.91034,185.31822 A 10.541568,10.541568 0 1 1 140.99347,185.31822 z"
       sodipodi:ry="10.541568"
       sodipodi:rx="10.541568"
       sodipodi:cy="185.31822"
       sodipodi:cx="130.4519"
       id="path2221"
       style="color:#000000;fill:#ff0000;fill-opacity:1;fill-rule:evenodd;stroke:#000000;stroke-width:0.34580751999999998;stroke-linecap:butt;stroke-linejoin:miter;marker:none;marker-start:none;marker-mid:none;marker-end:none;stroke-miterlimit:4;stroke-dasharray:none;stroke-dashoffset:0;stroke-opacity:1;visibility:visible;display:inline;overflow:visible"
       sodipodi:type="arc" />
    <path
       style="color:#000000;fill:#ff7f2a;fill-opacity:1;fill-rule:evenodd;stroke:#000000;stroke-width:0.38385585000000000;stroke-linecap:butt;stroke-linejoin:miter;marker:none;marker-start:none;marker-mid:none;marker-end:none;stroke-miterlimit:4;stroke-dashoffset:0;stroke-opacity:1;visibility:visible;display:inline;overflow:visible"
       d="M 84.482847,915.95619 C 76.996727,915.95619 69.925147,917.62666 63.562707,920.58645 L 73.686907,938.26781 C 77.096837,936.86376 80.832247,936.08463 84.746747,936.08463 C 99.388477,936.08463 111.51018,946.92496 113.53594,961.01127 L 133.80832,961.27517 C 132.9069,949.67762 127.93398,939.21298 120.32539,931.26244 C 118.03262,932.44765 115.42968,933.13374 112.67226,933.13374 C 103.75127,933.13374 96.457787,926.10699 95.998517,917.29968 C 92.304767,916.42422 88.445467,915.95619 84.482847,915.95619 z"
       id="path2898" />
    <path
       style="opacity:1;color:#000000;fill:#0000ff;fill-opacity:1;fill-rule:evenodd;stroke:#000000;stroke-width:0.49999997;stroke-linecap:butt;stroke-linejoin:miter;marker:none;marker-start:none;marker-mid:none;marker-end:none;stroke-miterlimit:4;stroke-dasharray:none;stroke-dashoffset:0;stroke-opacity:1;visibility:visible;display:inline;overflow:visible;enable-background:accumulate"
       d="M 73.487057,43.681805 L 67.181954,61.727444"
       id="path2901"
       transform="translate(-3.6557093e-6,894.31887)"
       sodipodi:nodetypes="cc" />
    <path
       sodipodi:nodetypes="cc"
       transform="translate(-3.6557093e-6,894.31887)"
       id="path2903"
       d="M 113.49185,66.728042 L 106.96932,84.121429"
       style="opacity:1;color:#000000;fill:#0000ff;fill-opacity:1;fill-rule:evenodd;stroke:#000000;stroke-width:0.49999997;stroke-linecap:butt;stroke-linejoin:miter;marker:none;marker-start:none;marker-mid:none;marker-end:none;stroke-miterlimit:4;stroke-dasharray:none;stroke-dashoffset:0;stroke-opacity:1;visibility:visible;display:inline;overflow:visible;enable-background:accumulate" />
    <path
       style="opacity:1;color:#000000;fill:#0000ff;fill-opacity:1;fill-rule:evenodd;stroke:#000000;stroke-width:0.49999997;stroke-linecap:butt;stroke-linejoin:miter;marker:none;marker-start:none;marker-mid:none;marker-end:none;stroke-miterlimit:4;stroke-dasharray:none;stroke-dashoffset:0;stroke-opacity:1;visibility:visible;display:inline;overflow:visible;enable-background:accumulate"
       d="M 96.229879,118.42956 L 89.489128,136.12717"
       id="path2905"
       transform="translate(-3.6557093e-6,894.31887)"
       sodipodi:nodetypes="cc" />
    <path
       sodipodi:nodetypes="cc"
       id="path2909"
       d="M 56.993483,1005.8039 L 50.252732,1023.5015"
       style="opacity:1;color:#000000;fill:#0000ff;fill-opacity:1;fill-rule:evenodd;stroke:#000000;stroke-width:0.49999997;stroke-linecap:butt;stroke-linejoin:miter;marker:none;marker-start:none;marker-mid:none;marker-end:none;stroke-miterlimit:4;stroke-dasharray:none;stroke-dashoffset:0;stroke-opacity:1;visibility:visible;display:inline;overflow:visible;enable-background:accumulate" />
    <path
       transform="matrix(1.1100274,0,0,1.1100274,-31.727967,710.75583)"
       d="M 140.99347,185.31822 A 10.541568,10.541568 0 1 1 119.91034,185.31822 A 10.541568,10.541568 0 1 1 140.99347,185.31822 z"
       sodipodi:ry="10.541568"
       sodipodi:rx="10.541568"
       sodipodi:cy="185.31822"
       sodipodi:cx="130.4519"
       id="path2213"
       style="color:#000000;fill:#0000ff;fill-opacity:1;fill-rule:evenodd;stroke:#000000;stroke-width:0.34580752;stroke-linecap:butt;stroke-linejoin:miter;marker:none;marker-start:none;marker-mid:none;marker-end:none;stroke-miterlimit:4;stroke-dasharray:none;stroke-dashoffset:0;stroke-opacity:1;visibility:visible;display:inline;overflow:visible;opacity:1;enable-background:accumulate"
       sodipodi:type="arc" />
  </g>
</svg>
