<?xml version="1.0" encoding="UTF-8" standalone="no"?>
<!-- Created with Inkscape (http://www.inkscape.org/) -->
<svg
   xmlns:dc="http://purl.org/dc/elements/1.1/"
   xmlns:cc="http://web.resource.org/cc/"
   xmlns:rdf="http://www.w3.org/1999/02/22-rdf-syntax-ns#"
   xmlns:svg="http://www.w3.org/2000/svg"
   xmlns="http://www.w3.org/2000/svg"
   xmlns:sodipodi="http://sodipodi.sourceforge.net/DTD/sodipodi-0.dtd"
   xmlns:inkscape="http://www.inkscape.org/namespaces/inkscape"
   width="152.36031"
   height="158.04332"
   id="svg2"
   sodipodi:version="0.32"
   inkscape:version="0.45+devel"
   sodipodi:docbase="/home/carles/Desktop"
   sodipodi:docname="freevial.svg"
   inkscape:output_extension="org.inkscape.output.svg.inkscape"
   version="1.0">
  <defs
     id="defs4" />
  <sodipodi:namedview
     id="base"
     pagecolor="#ffffff"
     bordercolor="#666666"
     borderopacity="1.0"
     gridtolerance="10000"
     guidetolerance="10"
     objecttolerance="10"
     inkscape:pageopacity="0.0"
     inkscape:pageshadow="2"
     inkscape:zoom="2.4473507"
     inkscape:cx="100.86174"
     inkscape:cy="90.399243"
     inkscape:document-units="px"
     inkscape:current-layer="layer1"
     showguides="true"
     inkscape:guide-bbox="true"
     inkscape:window-width="825"
     inkscape:window-height="750"
     inkscape:window-x="445"
     inkscape:window-y="22" />
  <metadata
     id="metadata7">
    <rdf:RDF>
      <cc:Work
         rdf:about="">
        <dc:format>image/svg+xml</dc:format>
        <dc:type
           rdf:resource="http://purl.org/dc/dcmitype/StillImage" />
      </cc:Work>
    </rdf:RDF>
  </metadata>
  <g
     inkscape:label="Layer 1"
     inkscape:groupmode="layer"
     id="layer1"
     transform="translate(3.6557093e-6,-894.31887)">
    <path
       sodipodi:type="arc"
       style="color:#000000;fill:#0000ff;fill-opacity:1;fill-rule:evenodd;stroke:#000000;stroke-width:0.69161505;stroke-linecap:butt;stroke-linejoin:miter;marker:none;marker-start:none;marker-mid:none;marker-end:none;stroke-miterlimit:4;stroke-dasharray:none;stroke-dashoffset:0;stroke-opacity:1;visibility:visible;display:inline;overflow:visible"
       id="path2978"
       sodipodi:cx="130.4519"
       sodipodi:cy="185.31822"
       sodipodi:rx="10.541568"
       sodipodi:ry="10.541568"
       d="M 140.99347,185.31822 A 10.541568,10.541568 0 1 1 119.91034,185.31822 A 10.541568,10.541568 0 1 1 140.99347,185.31822 z"
       transform="matrix(1.3688439,0,0,1.3688439,-56.260392,659.28774)" />
    <path
       style="color:#000000;fill:#ff6309;fill-opacity:1;fill-rule:evenodd;stroke:#000000;stroke-width:0.94671303;stroke-linecap:butt;stroke-linejoin:miter;marker:none;marker-start:none;marker-mid:none;marker-end:none;stroke-miterlimit:4;stroke-dasharray:none;stroke-dashoffset:0;stroke-opacity:1;visibility:visible;display:inline;overflow:visible"
       d="M 87.474582,912.33306 C 78.242975,912.33306 69.522574,914.39303 61.676652,918.04293 L 74.16143,939.84691 C 78.366427,938.1155 82.972791,937.1547 87.800015,937.1547 C 105.85564,937.1547 120.80367,950.52258 123.30175,967.89329 L 148.30089,968.21872 C 147.18929,953.91705 141.05687,941.01247 131.67424,931.20815 C 128.84689,932.66971 125.63704,933.51577 122.2367,933.51577 C 111.23567,933.51577 102.24163,924.85065 101.67527,913.98981 C 97.120273,912.91023 92.361127,912.33306 87.474582,912.33306 z"
       id="path3017" />
    <path
       style="color:#000000;fill:#ff00ff;fill-opacity:1;fill-rule:evenodd;stroke:#000000;stroke-width:0.94671303;stroke-linecap:butt;stroke-linejoin:miter;marker:none;marker-start:none;marker-mid:none;marker-end:none;stroke-miterlimit:4;stroke-dasharray:none;stroke-dashoffset:0;stroke-opacity:1;visibility:visible;display:inline;overflow:visible"
       d="M 52.919556,923.01317 C 41.521017,930.81946 32.915869,942.37801 28.926297,955.88186 C 35.002226,959.4632 39.073878,966.07414 39.073878,973.63273 C 39.073878,981.03847 35.154429,987.51876 29.281314,991.14692 C 33.456953,1004.3113 42.033785,1015.5466 53.304158,1023.128 L 65.611428,1001.2058 C 57.286592,994.63916 51.943258,984.46524 51.943258,973.04104 C 51.943258,961.68465 57.219281,951.53929 65.463504,944.96508 L 52.919556,923.01317 z"
       id="path3015" />
    <path
       style="color:#000000;fill:#00ff00;fill-opacity:1;fill-rule:evenodd;stroke:#000000;stroke-width:0.94671303;stroke-linecap:butt;stroke-linejoin:miter;marker:none;marker-start:none;marker-mid:none;marker-end:none;stroke-miterlimit:4;stroke-dasharray:none;stroke-dashoffset:0;stroke-opacity:1;visibility:visible;display:inline;overflow:visible"
       d="M 123.33134,977.9817 C 120.92217,995.44808 105.92674,1008.8978 87.800015,1008.8978 C 83.029386,1008.8978 78.473036,1007.9566 74.309354,1006.2647 L 62.120423,1028.0096 C 69.846615,1031.5256 78.423296,1033.5124 87.474582,1033.5124 C 92.440774,1033.5124 97.259799,1032.9103 101.88237,1031.7964 C 102.70624,1021.1836 111.56159,1012.8325 122.38462,1012.8325 C 125.6188,1012.8325 128.68377,1013.5729 131.40798,1014.9035 C 140.79095,1005.2209 146.97976,992.47282 148.24172,978.30713 L 123.33134,977.9817 z"
       id="path2982" />
    <path
       sodipodi:type="arc"
       style="color:#000000;fill:#ff0000;fill-opacity:1;fill-rule:evenodd;stroke:#000000;stroke-width:0.69161505;stroke-linecap:butt;stroke-linejoin:miter;marker:none;marker-start:none;marker-mid:none;marker-end:none;stroke-miterlimit:4;stroke-dasharray:none;stroke-dashoffset:0;stroke-opacity:1;visibility:visible;display:inline;overflow:visible"
       id="path2992"
       sodipodi:cx="130.4519"
       sodipodi:cy="185.31822"
       sodipodi:rx="10.541568"
       sodipodi:ry="10.541568"
       d="M 140.99347,185.31822 A 10.541568,10.541568 0 1 1 119.91034,185.31822 A 10.541568,10.541568 0 1 1 140.99347,185.31822 z"
       transform="matrix(1.3688439,0,0,1.3688439,-55.864477,780.04989)" />
    <path
       sodipodi:type="arc"
       style="color:#000000;fill:#ffff00;fill-opacity:1;fill-rule:evenodd;stroke:#000000;stroke-width:0.69161505;stroke-linecap:butt;stroke-linejoin:miter;marker:none;marker-start:none;marker-mid:none;marker-end:none;stroke-miterlimit:4;stroke-dasharray:none;stroke-dashoffset:0;stroke-opacity:1;visibility:visible;display:inline;overflow:visible"
       id="path2994"
       sodipodi:cx="130.4519"
       sodipodi:cy="185.31822"
       sodipodi:rx="10.541568"
       sodipodi:ry="10.541568"
       d="M 140.99347,185.31822 A 10.541568,10.541568 0 1 1 119.91034,185.31822 A 10.541568,10.541568 0 1 1 140.99347,185.31822 z"
       transform="matrix(1.3688439,0,0,1.3688439,-160.07913,719.9622)" />
  </g>
</svg>
