<?xml version="1.0" encoding="UTF-8" standalone="no"?>
<!-- Created with Inkscape (http://www.inkscape.org/) -->
<svg
   xmlns:dc="http://purl.org/dc/elements/1.1/"
   xmlns:cc="http://web.resource.org/cc/"
   xmlns:rdf="http://www.w3.org/1999/02/22-rdf-syntax-ns#"
   xmlns:svg="http://www.w3.org/2000/svg"
   xmlns="http://www.w3.org/2000/svg"
   xmlns:xlink="http://www.w3.org/1999/xlink"
   xmlns:sodipodi="http://sodipodi.sourceforge.net/DTD/sodipodi-0.dtd"
   xmlns:inkscape="http://www.inkscape.org/namespaces/inkscape"
   width="1024"
   height="768"
   id="svg2"
   sodipodi:version="0.32"
   inkscape:version="0.45+devel"
   version="1.0"
   sodipodi:docname="mascara_de_fons.svg"
   inkscape:output_extension="org.inkscape.output.svg.inkscape"
   inkscape:export-filename="/home/carles/ubuntucat/freevial/preguntador/imatges/mascara_de_fons.png"
   inkscape:export-xdpi="90"
   inkscape:export-ydpi="90">
  <defs
     id="defs4">
    <linearGradient
       id="linearGradient2790">
      <stop
         style="stop-color:#000000;stop-opacity:0;"
         offset="0"
         id="stop2792" />
      <stop
         id="stop2798"
         offset="0.24707484"
         style="stop-color:#000000;stop-opacity:1;" />
      <stop
         style="stop-color:#000000;stop-opacity:1;"
         offset="0.93225491"
         id="stop2800" />
      <stop
         style="stop-color:#000000;stop-opacity:1;"
         offset="1"
         id="stop2794" />
    </linearGradient>
    <linearGradient
       inkscape:collect="always"
       xlink:href="#linearGradient2790"
       id="linearGradient2796"
       x1="471.42856"
       y1="1.1368684e-13"
       x2="471.42856"
       y2="768.15497"
       gradientUnits="userSpaceOnUse" />
    <radialGradient
       r="90.029484"
       fy="361.57306"
       fx="-46.427742"
       cy="361.57306"
       cx="-46.427742"
       gradientTransform="matrix(0.9228441,-1.0430663,-0.8578276,-0.7589536,578.34146,712.71901)"
       gradientUnits="userSpaceOnUse"
       id="radialGradient2199"
       xlink:href="#linearGradient3185"
       inkscape:collect="always" />
    <radialGradient
       gradientUnits="userSpaceOnUse"
       gradientTransform="matrix(1.194037,-0.716871,-0.415712,-0.692418,102.16858,465.37394)"
       r="90.029484"
       fy="252.35136"
       fx="-84.663383"
       cy="252.35136"
       cx="-84.663383"
       id="radialGradient3191"
       xlink:href="#linearGradient3185"
       inkscape:collect="always" />
    <radialGradient
       r="172.6407"
       fy="703.09735"
       fx="-168.6608"
       cy="703.09735"
       cx="-168.6608"
       gradientTransform="matrix(0.766023,1.445987,-0.922842,0.488863,663.0581,153.7257)"
       gradientUnits="userSpaceOnUse"
       id="radialGradient3124"
       xlink:href="#linearGradient3061"
       inkscape:collect="always" />
    <radialGradient
       r="172.6407"
       fy="361.10373"
       fx="-24.927559"
       cy="361.10373"
       cx="-24.927559"
       gradientTransform="matrix(0.766023,1.445987,-0.922842,0.488863,663.0581,153.7257)"
       gradientUnits="userSpaceOnUse"
       id="radialGradient3116"
       xlink:href="#linearGradient3061"
       inkscape:collect="always" />
    <linearGradient
       y2="479.7547"
       x2="338.12277"
       y1="343.85489"
       x1="332.90396"
       gradientUnits="userSpaceOnUse"
       id="linearGradient3113"
       xlink:href="#linearGradient3014"
       inkscape:collect="always" />
    <linearGradient
       y2="63.754578"
       x2="334.66513"
       y1="240.12595"
       x1="332.90396"
       gradientTransform="translate(0.741262,0.280429)"
       gradientUnits="userSpaceOnUse"
       id="linearGradient3108"
       xlink:href="#linearGradient3014"
       inkscape:collect="always" />
    <radialGradient
       r="172.6407"
       fy="361.10373"
       fx="-24.927559"
       cy="361.10373"
       cx="-24.927559"
       gradientTransform="matrix(0.766023,1.445987,-0.922842,0.488863,663.0581,153.7257)"
       gradientUnits="userSpaceOnUse"
       id="radialGradient3103"
       xlink:href="#linearGradient3061"
       inkscape:collect="always" />
    <radialGradient
       r="172.6407"
       fy="492.1666"
       fx="-240.63618"
       cy="492.1666"
       cx="-240.63618"
       gradientTransform="matrix(4.456476e-2,6.25934e-2,-4.297135e-2,3.05944e-2,162.3248,185.3229)"
       gradientUnits="userSpaceOnUse"
       id="radialGradient3075"
       xlink:href="#linearGradient3069"
       inkscape:collect="always" />
    <radialGradient
       gradientUnits="userSpaceOnUse"
       gradientTransform="matrix(0.766023,1.445987,-0.922842,0.488863,663.0581,153.7257)"
       r="172.6407"
       fy="361.10373"
       fx="-24.927559"
       cy="361.10373"
       cx="-24.927559"
       id="radialGradient3067"
       xlink:href="#linearGradient3061"
       inkscape:collect="always" />
    <linearGradient
       y2="63.754578"
       x2="334.66513"
       y1="240.12595"
       x1="332.90396"
       gradientTransform="translate(0.741262,0.280429)"
       gradientUnits="userSpaceOnUse"
       id="linearGradient3041"
       xlink:href="#linearGradient3014"
       inkscape:collect="always" />
    <linearGradient
       y2="480.92621"
       x2="293.009"
       y1="240.21315"
       x1="290.71317"
       gradientUnits="userSpaceOnUse"
       id="linearGradient3034"
       xlink:href="#linearGradient3024"
       inkscape:collect="always" />
    <linearGradient
       gradientUnits="userSpaceOnUse"
       y2="195.85979"
       x2="130.4519"
       y1="187.30333"
       x1="130.4519"
       id="linearGradient3030"
       xlink:href="#linearGradient3024"
       inkscape:collect="always" />
    <linearGradient
       gradientUnits="userSpaceOnUse"
       y2="479.7547"
       x2="338.12277"
       y1="343.85489"
       x1="332.90396"
       id="linearGradient3020"
       xlink:href="#linearGradient3014"
       inkscape:collect="always" />
    <linearGradient
       id="linearGradient2255">
      <stop
         style="stop-color:#120d5e;stop-opacity:1;"
         offset="0"
         id="stop2257" />
      <stop
         style="stop-color:#ffffff;stop-opacity:1;"
         offset="1"
         id="stop2259" />
    </linearGradient>
    <linearGradient
       id="linearGradient3014">
      <stop
         id="stop3016"
         offset="0"
         style="stop-color:#ff6309;stop-opacity:1;" />
      <stop
         id="stop3018"
         offset="1"
         style="stop-color:white;stop-opacity:1;" />
    </linearGradient>
    <linearGradient
       id="linearGradient3024">
      <stop
         id="stop3026"
         offset="0"
         style="stop-color:#c90016;stop-opacity:1;" />
      <stop
         id="stop3028"
         offset="1"
         style="stop-color:white;stop-opacity:1;" />
    </linearGradient>
    <linearGradient
       id="linearGradient3061"
       inkscape:collect="always">
      <stop
         id="stop3063"
         offset="0"
         style="stop-color:black;stop-opacity:1;" />
      <stop
         id="stop3065"
         offset="1"
         style="stop-color:black;stop-opacity:0;" />
    </linearGradient>
    <linearGradient
       id="linearGradient3069"
       inkscape:collect="always">
      <stop
         id="stop3071"
         offset="0"
         style="stop-color:black;stop-opacity:1;" />
      <stop
         id="stop3073"
         offset="1"
         style="stop-color:black;stop-opacity:0;" />
    </linearGradient>
    <linearGradient
       id="linearGradient3185">
      <stop
         id="stop3187"
         offset="0"
         style="stop-color:yellow;stop-opacity:1;" />
      <stop
         id="stop3189"
         offset="1"
         style="stop-color:yellow;stop-opacity:0;" />
    </linearGradient>
    <filter
       inkscape:collect="always"
       id="filter3033">
      <feGaussianBlur
         inkscape:collect="always"
         stdDeviation="2.1610485"
         id="feGaussianBlur3035" />
    </filter>
  </defs>
  <sodipodi:namedview
     id="base"
     pagecolor="#ffffff"
     bordercolor="#666666"
     borderopacity="1.0"
     gridtolerance="10000"
     guidetolerance="10"
     objecttolerance="10"
     inkscape:pageopacity="0.0"
     inkscape:pageshadow="2"
     inkscape:zoom="0.7"
     inkscape:cx="754.90737"
     inkscape:cy="199.85008"
     inkscape:document-units="px"
     inkscape:current-layer="capa1"
     width="1024px"
     height="768px"
     inkscape:window-width="960"
     inkscape:window-height="702"
     inkscape:window-x="198"
     inkscape:window-y="54" />
  <metadata
     id="metadata7">
    <rdf:RDF>
      <cc:Work
         rdf:about="">
        <dc:format>image/svg+xml</dc:format>
        <dc:type
           rdf:resource="http://purl.org/dc/dcmitype/StillImage" />
      </cc:Work>
    </rdf:RDF>
  </metadata>
  <g
     inkscape:label="Capa 1"
     inkscape:groupmode="layer"
     id="capa1">
    <rect
       style="opacity:1;color:#000000;fill:url(#linearGradient2796);fill-opacity:1;fill-rule:evenodd;stroke:none;stroke-width:3;stroke-linecap:butt;stroke-linejoin:miter;marker:none;marker-start:none;marker-mid:none;marker-end:none;stroke-miterlimit:4;stroke-dasharray:none;stroke-dashoffset:0;stroke-opacity:1;visibility:visible;display:inline;overflow:visible;enable-background:accumulate"
       id="rect2208"
       width="1024"
       height="768"
       x="0"
       y="6.6613381e-14" />
    <path
       sodipodi:nodetypes="cccc"
       id="path2306"
       d="M 1026.8766,614.90131 L 1026.8766,771.2843 L 900.52504,772.39453 C 964.55602,702.98745 1033.3766,619.18049 1026.8766,614.90131 z"
       style="color:#000000;fill:#4d4d4d;fill-opacity:1;fill-rule:evenodd;stroke:none;stroke-width:3;stroke-linecap:butt;stroke-linejoin:miter;marker:none;marker-start:none;marker-mid:none;marker-end:none;stroke-miterlimit:4;stroke-dashoffset:0;stroke-opacity:1;visibility:visible;display:inline;overflow:visible;filter:url(#filter3033);enable-background:accumulate" />
    <path
       style="color:#000000;fill:#d40000;fill-opacity:1;fill-rule:evenodd;stroke:none;stroke-width:3;stroke-linecap:butt;stroke-linejoin:miter;marker:none;marker-start:none;marker-mid:none;marker-end:none;stroke-miterlimit:4;stroke-dashoffset:0;stroke-opacity:1;visibility:visible;display:inline;overflow:visible;enable-background:accumulate"
       d="M 1024.0579,625.71427 L 1024.0579,768 L 909.09647,769.01015 C 967.35533,705.85982 1029.972,629.6077 1024.0579,625.71427 z"
       id="rect2212"
       sodipodi:nodetypes="cccc" />
    <text
       xml:space="preserve"
       style="font-size:20.26376724px;font-style:normal;font-variant:normal;font-weight:bold;font-stretch:normal;text-indent:0;text-align:start;text-decoration:none;line-height:100%;letter-spacing:normal;word-spacing:normal;text-transform:none;direction:ltr;block-progression:tb;writing-mode:lr-tb;text-anchor:start;opacity:1;color:#000000;fill:#ffffff;fill-opacity:1;fill-rule:evenodd;stroke:none;stroke-width:3;stroke-linecap:butt;stroke-linejoin:miter;marker:none;marker-start:none;marker-mid:none;marker-end:none;stroke-miterlimit:4;stroke-dasharray:none;stroke-dashoffset:0;stroke-opacity:1;visibility:visible;display:inline;overflow:visible;enable-background:accumulate;font-family:Bitstream Vera Sans"
       x="956.78931"
       y="760.38837"
       id="text2216"
       sodipodi:linespacing="100%"><tspan
         sodipodi:role="line"
         id="tspan2218"
         x="956.78931"
         y="760.38837"
         style="font-family:Ubuntu-Title">freevial</tspan></text>
    <g
       id="layer1"
       inkscape:label="Layer 1"
       transform="matrix(0.1010145,0,0,0.1010145,968.43572,685.00695)">
      <path
         transform="matrix(6.967142,0,0,6.967142,-674.4937,-789.8969)"
         d="M 140.99347,185.31822 A 10.541568,10.541568 0 1 1 119.91034,185.31822 A 10.541568,10.541568 0 1 1 140.99347,185.31822 z"
         sodipodi:ry="10.541568"
         sodipodi:rx="10.541568"
         sodipodi:cy="185.31822"
         sodipodi:cx="130.4519"
         id="path3043"
         style="color:#000000;fill:url(#radialGradient3075);fill-opacity:1;fill-rule:nonzero;stroke:none;stroke-width:0.5741235;stroke-linecap:round;stroke-linejoin:round;marker:none;marker-start:none;marker-mid:none;marker-end:none;stroke-miterlimit:4;stroke-dasharray:none;stroke-dashoffset:0;stroke-opacity:1;visibility:visible;display:inline;overflow:visible"
         sodipodi:type="arc" />
      <path
         id="path3045"
         d="M 346.33387,77.386245 C 231.38744,77.386245 138.08073,170.69297 138.08077,285.6393 C 138.08077,332.45388 153.52867,375.67636 179.64104,410.47065 C 195.52592,400.77186 214.18996,395.11143 234.15122,395.11143 C 289.93677,395.11139 335.61647,438.75096 338.80477,493.74175 C 341.31217,493.83134 343.80477,493.89235 346.33387,493.89235 C 398.82657,493.89235 446.72467,474.48242 483.36217,442.39375 L 410.02947,357.31569 C 393.06537,372.42945 370.82417,381.70976 346.33387,381.70976 C 293.34997,381.7098 250.26337,338.62317 250.26337,285.6393 C 250.26337,232.65539 293.34997,189.71943 346.33387,189.71943 C 369.51427,189.71943 390.72497,197.85714 407.31897,211.55362 L 476.28497,123.16278 C 440.63587,94.592875 395.53827,77.386245 346.33387,77.386245 z"
         style="color:#000000;fill:url(#radialGradient3116);fill-opacity:1;fill-rule:nonzero;stroke:none;stroke-width:4;stroke-linecap:round;stroke-linejoin:round;marker:none;marker-start:none;marker-mid:none;marker-end:none;stroke-miterlimit:4;stroke-dasharray:none;stroke-dashoffset:0;stroke-opacity:1;visibility:visible;display:inline;overflow:visible" />
      <path
         id="path3067"
         d="M 335.68499,62.991594 C 220.7386,62.991594 127.43189,156.29831 127.43193,271.24464 C 127.43193,318.05922 142.87983,361.2817 168.9922,396.07599 C 184.87708,386.3772 203.54112,380.71677 223.50238,380.71677 C 279.28792,380.71673 324.96764,424.3563 328.15595,479.34709 C 330.6633,479.43668 333.15595,479.49769 335.68499,479.49769 C 388.17768,479.49769 436.07579,460.08776 472.71337,427.99909 L 399.3806,342.92103 C 382.41649,358.03479 360.17537,367.3151 335.68499,367.3151 C 282.70112,367.31514 239.61452,324.22851 239.61452,271.24464 C 239.61452,218.26073 282.70112,175.32477 335.68499,175.32477 C 358.86544,175.32477 380.0761,183.46248 396.67015,197.15896 L 465.63609,108.76812 C 429.98707,80.198219 384.88943,62.991594 335.68499,62.991594 z"
         style="color:#000000;fill:url(#linearGradient3113);fill-opacity:1;fill-rule:evenodd;stroke:none;stroke-width:0.514;stroke-linecap:butt;stroke-linejoin:miter;marker:none;marker-start:none;marker-mid:none;marker-end:none;stroke-miterlimit:4;stroke-dasharray:none;stroke-dashoffset:0;stroke-opacity:1;visibility:visible;display:inline;overflow:visible" />
      <path
         transform="matrix(6.967142,0,0,6.967142,-683.7408,-804.0513)"
         d="M 140.99347,185.31822 A 10.541568,10.541568 0 1 1 119.91034,185.31822 A 10.541568,10.541568 0 1 1 140.99347,185.31822 z"
         sodipodi:ry="10.541568"
         sodipodi:rx="10.541568"
         sodipodi:cy="185.31822"
         sodipodi:cx="130.4519"
         id="path3102"
         style="color:#000000;fill:url(#linearGradient3030);fill-opacity:1;fill-rule:evenodd;stroke:none;stroke-width:0;stroke-linecap:butt;stroke-linejoin:miter;marker:none;marker-start:none;marker-mid:none;marker-end:none;stroke-miterlimit:4;stroke-dasharray:none;stroke-dashoffset:0;stroke-opacity:1;visibility:visible;display:inline;overflow:visible"
         sodipodi:type="arc" />
      <path
         transform="matrix(-0.365847,-2.554036e-3,3.489314e-3,-0.267785,333.722,545.1214)"
         d="M 457.14284,315.21933 A 165.71428,165.71428 0 1 1 125.71428,315.21933 A 165.71428,165.71428 0 1 1 457.14284,315.21933 z"
         sodipodi:ry="165.71428"
         sodipodi:rx="165.71428"
         sodipodi:cy="315.21933"
         sodipodi:cx="291.42856"
         id="path3032"
         style="fill:url(#linearGradient3034);fill-opacity:1;stroke:none;stroke-width:6.58400011;stroke-linecap:round;stroke-linejoin:round;stroke-miterlimit:4;stroke-dasharray:none;stroke-dashoffset:0;stroke-opacity:1"
         sodipodi:type="arc" />
      <path
         id="path3036"
         d="M 333.29836,64.302435 C 312.98706,64.53766 293.5241,67.379942 275.48586,72.364935 C 243.74962,82.074062 215.22734,99.145785 191.92336,121.61493 C 174.71802,140.98526 164.59025,164.0658 164.26711,188.86493 C 163.68196,233.77172 195.3861,273.40219 243.51711,295.98993 C 241.46065,288.17925 240.36086,279.9697 240.36086,271.52118 C 240.36089,218.53727 283.43949,175.61493 336.42336,175.61493 C 359.60381,175.61493 380.82931,183.73095 397.42336,197.42743 L 466.39211,109.05243 C 447.45356,93.874678 425.83179,81.908798 402.36086,74.021185 C 402.02973,73.909905 401.69273,73.818338 401.36086,73.708685 C 401.09935,73.629933 400.84177,73.536519 400.57961,73.458685 C 381.14867,67.689721 359.96424,64.457615 337.73586,64.302435 C 336.25397,64.29209 334.77166,64.285373 333.29836,64.302435 z"
         style="color:#000000;fill:url(#linearGradient3108);fill-opacity:1;fill-rule:evenodd;stroke:none;stroke-width:0.514;stroke-linecap:butt;stroke-linejoin:miter;marker:none;marker-start:none;marker-mid:none;marker-end:none;stroke-miterlimit:4;stroke-dasharray:none;stroke-dashoffset:0;stroke-opacity:1;visibility:visible;display:inline;overflow:visible" />
      <path
         sodipodi:nodetypes="csccsccscccscssscsccscccccsssccscscsc"
         id="path3012"
         d="M 337.09375,61.21875 C 221.065,61.21875 126.84371,155.47135 126.84375,271.5 C 126.84375,318.75455 142.41889,362.40385 168.78125,397.53125 C 169.40309,398.36144 170.55637,398.57853 171.4375,398.03125 C 187.02308,388.51519 205.32308,382.96875 224.90625,382.96875 C 279.64875,382.9687 324.43455,425.73768 327.5625,479.6875 C 327.61111,480.73153 328.45532,481.56212 329.5,481.59375 C 332.02229,481.68387 334.53249,481.75 337.09375,481.75 C 390.07946,481.74999 438.45078,462.14453 475.4375,429.75 C 476.26217,429.02327 476.34591,427.76726 475.625,426.9375 L 402.3125,341.84375 C 401.96174,341.42864 401.45717,341.17413 400.91486,341.13876 C 400.37256,341.10339 399.8392,341.29021 399.4375,341.65625 C 382.81807,356.46293 361.0788,365.5625 337.09375,365.5625 C 285.19411,365.56253 243.03125,323.3996 243.03125,271.5 C 243.03125,219.60035 285.19033,177.5625 337.09375,177.5625 C 359.80606,177.5625 380.56384,185.52606 396.8125,198.9375 C 397.22865,199.27913 397.76495,199.43857 398.30014,199.37976 C 398.83534,199.32094 399.32422,199.04885 399.65625,198.625 L 468.625,110.25 C 468.95324,109.83179 469.10149,109.30011 469.03699,108.77239 C 468.97249,108.24467 468.70056,107.76434 468.28125,107.4375 C 432.29565,78.597916 386.76441,61.21875 337.09375,61.21875 z M 337.09375,65.21875 C 385.13378,65.21875 429.14938,81.830607 464.21875,109.40625 L 399.22007,187.94628 C 382.52527,174.74465 360.00598,162.4653 337.09375,162.4653 C 283.02937,162.4653 232.86614,214.96578 232.86614,269.03396 C 232.86614,323.1021 283.02557,369.56253 337.09375,369.5625 C 361.36421,369.5625 383.45347,360.57342 400.5625,345.9375 L 471.25,428 C 435.16098,458.9998 393.3068,469.11884 342.02584,469.11885 C 340.11392,469.11885 333.27705,466.58434 331.375,466.5278 C 327.2154,411.37546 282.3371,374.03661 226.13927,374.03666 C 206.47721,374.03666 186.85799,375.80155 171.03125,385.0876 C 145.78614,350.86495 130.84375,317.26262 130.84375,271.5 C 130.84371,157.63599 223.22964,65.21875 337.09375,65.21875 z"
         style="color:#000000;fill:#000000;fill-opacity:1;fill-rule:nonzero;stroke:none;stroke-width:4;stroke-linecap:round;stroke-linejoin:round;marker:none;stroke-miterlimit:4;stroke-dasharray:none;stroke-dashoffset:0;stroke-opacity:1;visibility:visible;display:inline;overflow:visible" />
      <path
         sodipodi:nodetypes="cccccccscccccccccscccccsc"
         id="rect3093"
         d="M 227.80117,418.40087 C 227.35854,418.40087 228.87075,418.42503 226.10015,418.43212 L 160.51394,511.78096 C 162.7062,518.20331 165.41169,522.19149 169.25042,527.49462 L 240.96918,420.58837 C 235.14906,419.16819 234.09269,418.40087 227.80117,418.40087 z M 205.46918,420.33837 C 175.61382,427.35496 156.28167,452.73297 156.28167,486.11962 C 156.28167,488.52235 156.37991,490.88899 156.59417,493.21337 L 205.46918,420.33837 z M 255.06293,425.58837 L 179.31292,538.49462 C 183.67821,542.28615 188.55937,545.48905 193.87543,548.05712 L 269.78168,434.93212 C 265.329,431.25902 260.37716,428.11223 255.06293,425.58837 z M 280.52325,447.22777 L 208.13052,553.00814 C 214.12884,554.59452 218.55883,555.05712 225.21918,555.05712 C 225.31401,555.05712 225.40572,555.05745 225.50043,555.05712 L 288.96918,460.43212 C 286.42738,454.48259 284.57896,452.1309 280.52325,447.22777 z M 294.00043,480.27587 L 245.68793,552.33837 C 274.50815,544.38044 294.37543,519.60732 294.37543,487.33837 C 294.37543,484.93611 294.23329,482.59981 294.00043,480.27587 z"
         style="color:#000000;fill:url(#radialGradient2199);fill-opacity:1;fill-rule:nonzero;stroke:none;stroke-width:4;stroke-linecap:round;stroke-linejoin:round;marker:none;marker-start:none;marker-mid:none;marker-end:none;stroke-miterlimit:4;stroke-dashoffset:0;stroke-opacity:1;visibility:visible;display:inline;overflow:visible" />
      <path
         sodipodi:nodetypes="csssccsssc"
         id="path3022"
         d="M 225.01948,412.25498 C 183.39597,412.25498 149.68726,445.96368 149.68726,487.5872 C 149.68726,529.21072 183.39597,563.13715 225.01948,563.13715 C 266.643,563.13715 300.56943,529.21072 300.56943,487.5872 C 300.56943,445.96368 266.643,412.25498 225.01948,412.25498 z M 222.55344,417.40702 C 262.01276,417.40702 294.18437,446.89487 294.18437,486.35418 C 294.18437,525.8135 264.4788,554.06832 225.01948,554.06832 C 185.56017,554.06832 156.07232,524.58048 156.07232,485.12116 C 156.07232,445.66185 183.09413,417.40702 222.55344,417.40702 z"
         style="color:#000000;fill:#000000;fill-opacity:1;fill-rule:nonzero;stroke:none;stroke-width:0.5741235;stroke-linecap:round;stroke-linejoin:round;marker:none;stroke-miterlimit:4;stroke-dasharray:none;stroke-dashoffset:0;stroke-opacity:1;visibility:visible;display:inline;overflow:visible" />
    </g>
  </g>
</svg>
