<?xml version="1.0" encoding="UTF-8" standalone="no"?>
<!-- Created with Inkscape (http://www.inkscape.org/) -->
<svg
   xmlns:dc="http://purl.org/dc/elements/1.1/"
   xmlns:cc="http://web.resource.org/cc/"
   xmlns:rdf="http://www.w3.org/1999/02/22-rdf-syntax-ns#"
   xmlns:svg="http://www.w3.org/2000/svg"
   xmlns="http://www.w3.org/2000/svg"
   xmlns:xlink="http://www.w3.org/1999/xlink"
   xmlns:sodipodi="http://sodipodi.sourceforge.net/DTD/sodipodi-0.dtd"
   xmlns:inkscape="http://www.inkscape.org/namespaces/inkscape"
   width="310.30576"
   height="137.91365"
   id="svg2"
   sodipodi:version="0.32"
   inkscape:version="0.45+devel"
   version="1.0"
   sodipodi:docname="ok_nook.svg"
   inkscape:output_extension="org.inkscape.output.svg.inkscape">
  <defs
     id="defs4">
    <linearGradient
       inkscape:collect="always"
       id="linearGradient2886">
      <stop
         style="stop-color:#ffffff;stop-opacity:1;"
         offset="0"
         id="stop2888" />
      <stop
         style="stop-color:#ffffff;stop-opacity:0;"
         offset="1"
         id="stop2890" />
    </linearGradient>
    <linearGradient
       inkscape:collect="always"
       id="linearGradient2864">
      <stop
         style="stop-color:#ffffff;stop-opacity:1;"
         offset="0"
         id="stop2866" />
      <stop
         style="stop-color:#ffffff;stop-opacity:0;"
         offset="1"
         id="stop2868" />
    </linearGradient>
    <linearGradient
       inkscape:collect="always"
       xlink:href="#linearGradient2864"
       id="linearGradient2870"
       x1="1212.8572"
       y1="305.14285"
       x2="1241.25"
       y2="353.71429"
       gradientUnits="userSpaceOnUse"
       gradientTransform="translate(-24.322345,12.161172)" />
    <linearGradient
       inkscape:collect="always"
       xlink:href="#linearGradient2886"
       id="linearGradient2892"
       x1="1161.4286"
       y1="495.14285"
       x2="1185.7142"
       y2="530.625"
       gradientUnits="userSpaceOnUse"
       gradientTransform="translate(-156.64437,-142.77267)" />
    <filter
       inkscape:collect="always"
       id="filter2910">
      <feGaussianBlur
         inkscape:collect="always"
         stdDeviation="2.8291808"
         id="feGaussianBlur2912" />
    </filter>
    <filter
       inkscape:collect="always"
       id="filter2914">
      <feGaussianBlur
         inkscape:collect="always"
         stdDeviation="2.8291808"
         id="feGaussianBlur2916" />
    </filter>
    <filter
       inkscape:collect="always"
       id="filter3373"
       x="-0.1105773"
       width="1.2211546"
       y="-0.10507338"
       height="1.2101468">
      <feGaussianBlur
         inkscape:collect="always"
         stdDeviation="4.7202731"
         id="feGaussianBlur3375" />
    </filter>
  </defs>
  <sodipodi:namedview
     id="base"
     pagecolor="#ffffff"
     bordercolor="#666666"
     borderopacity="1.0"
     gridtolerance="10000"
     guidetolerance="10"
     objecttolerance="10"
     inkscape:pageopacity="0.0"
     inkscape:pageshadow="2"
     inkscape:zoom="2.0302559"
     inkscape:cx="259.07956"
     inkscape:cy="68.452565"
     inkscape:document-units="px"
     inkscape:current-layer="capa1"
     width="1024px"
     height="768px"
     inkscape:window-width="1264"
     inkscape:window-height="751"
     inkscape:window-x="6"
     inkscape:window-y="22" />
  <metadata
     id="metadata7">
    <rdf:RDF>
      <cc:Work
         rdf:about="">
        <dc:format>image/svg+xml</dc:format>
        <dc:type
           rdf:resource="http://purl.org/dc/dcmitype/StillImage" />
      </cc:Work>
    </rdf:RDF>
  </metadata>
  <g
     inkscape:label="Capa 1"
     inkscape:groupmode="layer"
     id="capa1"
     transform="translate(-971.61078,-283.63892)">
    <rect
       y="283.63892"
       x="1128.2413"
       height="137.91365"
       width="153.6752"
       id="rect3407"
       style="opacity:1;color:#000000;fill:#000000;fill-opacity:0;fill-rule:nonzero;stroke:none;stroke-width:1.15900015999999995px;stroke-linecap:butt;stroke-linejoin:miter;marker:none;marker-start:none;marker-mid:none;marker-end:none;stroke-miterlimit:4;stroke-dasharray:none;stroke-dashoffset:0;stroke-opacity:1;visibility:visible;display:inline;overflow:visible;enable-background:accumulate"
       inkscape:export-filename="/home/carles/ubuntucat/freevial/preguntador/imatges/nook.png"
       inkscape:export-xdpi="90"
       inkscape:export-ydpi="90" />
    <rect
       style="opacity:1;color:#000000;fill:#000000;fill-opacity:0;fill-rule:nonzero;stroke:none;stroke-width:1.15900015999999995px;stroke-linecap:butt;stroke-linejoin:miter;marker:none;marker-start:none;marker-mid:none;marker-end:none;stroke-miterlimit:4;stroke-dasharray:none;stroke-dashoffset:0;stroke-opacity:1;visibility:visible;display:inline;overflow:visible;enable-background:accumulate"
       id="rect3401"
       width="153.6752"
       height="137.91365"
       x="971.61078"
       y="283.63892"
       inkscape:export-filename="/home/carles/ubuntucat/freevial/preguntador/imatges/ok.png"
       inkscape:export-xdpi="90"
       inkscape:export-ydpi="90" />
    <path
       id="path3377"
       d="M 1100.9216,306.29796 C 1100.2528,306.73847 1099.5862,307.17728 1098.9174,307.61778 C 1092.8493,310.59355 1087.0795,314.49416 1081.108,317.76894 C 1075.1331,321.85565 1068.9564,325.51345 1063.6898,331.08112 C 1059.6615,334.47737 1055.7471,338.06309 1051.9092,341.80263 C 1046.9157,346.53859 1042.083,351.57377 1037.1469,356.41833 C 1032.6096,361.36958 1028.0112,366.22613 1023.5251,371.24588 L 1023.6554,372.87528 C 1022.4171,370.9821 1021.0217,369.16343 1019.3701,367.46567 C 1016.688,364.87798 1014.1437,362.19184 1010.8157,360.08446 C 1007.3208,357.49108 1003.3074,355.42234 999.50763,353.12694 C 995.74973,351.05158 991.94803,348.96272 987.89003,347.27742 L 986.87983,372.07685 C 990.66863,373.49357 994.21393,375.38686 997.63393,377.30725 C 1001.4465,379.49477 1005.1633,381.74121 1008.4368,384.42776 C 1011.5681,386.52523 1014.1318,389.12341 1016.6164,391.69484 C 1019.7797,395.39658 1022.0814,399.56982 1023.9813,403.76873 C 1024.6949,405.34239 1025.5222,406.86245 1026.3765,408.3799 L 1026.5883,411.14994 C 1026.8024,410.74637 1027.031,410.35255 1027.2564,409.96045 C 1027.6405,410.62498 1028.0435,411.28185 1028.4295,411.94832 L 1029.1465,406.96235 C 1032.1811,402.54034 1035.8308,398.75914 1039.2814,394.9211 C 1043.984,390.04797 1048.894,385.55077 1053.8156,381.05488 C 1057.6823,377.34323 1061.6557,373.82331 1065.5473,370.15421 C 1070.764,364.60476 1076.6082,360.43187 1082.5746,356.40207 C 1088.3131,353.00707 1094.0694,349.57068 1100.0091,346.78855 C 1100.7514,346.40271 1101.4828,346.01754 1102.2251,345.6317 L 1100.9216,306.29796 z"
       style="opacity:1;color:#000000;fill:#000000;fill-opacity:1;fill-rule:nonzero;stroke:none;stroke-width:1.15900015999999995px;stroke-linecap:butt;stroke-linejoin:miter;marker:none;marker-start:none;marker-mid:none;marker-end:none;stroke-miterlimit:4;stroke-dasharray:none;stroke-dashoffset:0;stroke-opacity:1;visibility:visible;display:inline;overflow:visible;filter:url(#filter3373);enable-background:accumulate"
       inkscape:export-filename="/home/carles/ubuntucat/freevial/preguntador/imatges/ok.png"
       inkscape:export-xdpi="90"
       inkscape:export-ydpi="90" />
    <path
       id="path2918"
       d="M 1190.4454,289.55553 L 1188.5788,330.23864 C 1194.3793,332.16214 1199.8604,334.63888 1205.1659,337.21713 C 1203.1706,338.77854 1201.176,340.34478 1199.1631,341.8836 C 1193.2566,346.90438 1187.2705,351.83203 1181.4306,356.92239 L 1185.4183,397.37214 C 1189.8032,390.93276 1196.0966,385.99791 1201.9418,380.93348 C 1208.0637,375.99191 1214.4768,371.42943 1220.8834,366.87041 C 1225.8967,363.1219 1231.0244,359.54504 1236.0707,355.84058 C 1238.7112,357.96367 1241.1766,360.21233 1243.6007,362.4373 C 1249.4539,368.51179 1253.724,375.35809 1257.2395,382.24851 C 1259.5966,386.85864 1262.5457,391.23168 1265.4482,395.67525 L 1271.854,356.05269 C 1268.9275,351.79131 1266.3416,347.43578 1263.9634,343.00779 C 1263.3869,342.02989 1262.814,341.05735 1262.2241,340.08065 C 1268.4013,337.24349 1274.6119,334.45572 1280.996,332.12644 C 1281.9623,331.73516 1282.9145,331.32987 1283.8807,330.93861 L 1282.1838,291.06152 C 1281.3132,291.50821 1280.4455,291.95115 1279.5749,292.39783 C 1271.6755,295.41544 1264.1645,299.36445 1256.391,302.68527 C 1249.9594,306.11201 1243.3563,309.2267 1237.3858,313.39693 C 1235.9631,312.39911 1234.4543,311.44556 1232.8678,310.55463 C 1226.4011,306.29893 1218.9631,302.93095 1211.9323,299.16421 C 1204.9785,295.75845 1197.9538,292.32114 1190.4454,289.55553 z"
       style="fill:#000000;fill-opacity:1;fill-rule:nonzero;stroke:none;stroke-width:1px;stroke-linecap:butt;stroke-linejoin:miter;stroke-opacity:1;filter:url(#filter3373)"
       transform="matrix(1.1590001,0,0,1.1590001,-220.31477,-42.449629)"
       inkscape:export-filename="/home/carles/ubuntucat/freevial/preguntador/imatges/nook.png"
       inkscape:export-xdpi="90"
       inkscape:export-ydpi="90" />
    <path
       style="fill:#ff0000;fill-opacity:1;fill-rule:nonzero;stroke:none;stroke-width:1px;stroke-linecap:butt;stroke-linejoin:miter;stroke-opacity:1"
       d="M 1174.6945,293.14527 L 1172.8279,333.82838 C 1178.6284,335.75188 1184.1095,338.22862 1189.415,340.80687 C 1187.4197,342.36828 1185.4251,343.93452 1183.4122,345.47334 C 1177.5057,350.49412 1171.5196,355.42177 1165.6797,360.51213 L 1169.6674,400.96188 C 1174.0523,394.5225 1180.3457,389.58765 1186.1909,384.52322 C 1192.3128,379.58165 1198.7259,375.01917 1205.1325,370.46015 C 1210.1458,366.71164 1215.2735,363.13478 1220.3198,359.43032 C 1222.9603,361.55341 1225.4257,363.80207 1227.8498,366.02704 C 1233.703,372.10153 1237.9731,378.94783 1241.4886,385.83825 C 1243.8457,390.44838 1246.7948,394.82142 1249.6973,399.26499 L 1256.1031,359.64243 C 1253.1766,355.38105 1250.5907,351.02552 1248.2125,346.59753 C 1247.636,345.61963 1247.0631,344.64709 1246.4732,343.67039 C 1252.6504,340.83323 1258.861,338.04546 1265.2451,335.71618 C 1266.2114,335.3249 1267.1636,334.91961 1268.1298,334.52835 L 1266.4329,294.65126 C 1265.5623,295.09795 1264.6946,295.54089 1263.824,295.98757 C 1255.9246,299.00518 1248.4136,302.95419 1240.6401,306.27501 C 1234.2085,309.70175 1227.6054,312.81644 1221.6349,316.98667 C 1220.2122,315.98885 1218.7034,315.0353 1217.1169,314.14437 C 1210.6502,309.88867 1203.2122,306.52069 1196.1814,302.75395 C 1189.2276,299.34819 1182.2029,295.91088 1174.6945,293.14527 z"
       id="path2265"
       inkscape:export-filename="/home/carles/ubuntucat/freevial/preguntador/imatges/nook.png"
       inkscape:export-xdpi="90"
       inkscape:export-ydpi="90" />
    <path
       style="fill:#00ff00;fill-opacity:1;fill-rule:nonzero;stroke:none;stroke-width:1px;stroke-linecap:butt;stroke-linejoin:miter;stroke-opacity:1"
       d="M 1108.0645,292.01225 C 1076.8067,307.77264 1053.0585,332.18712 1030.7983,358.58957 C 1022.2685,346.48383 1008.3433,338.83579 995.03293,332.99171 L 994.02273,357.79114 C 1012.3577,364.06533 1024.0494,377.7446 1033.5194,394.09419 C 1055.7525,369.47756 1079.7772,346.78566 1109.368,331.34599 L 1108.0645,292.01225 z"
       id="path2269"
       sodipodi:nodetypes="ccccccc"
       inkscape:export-filename="/home/carles/ubuntucat/freevial/preguntador/imatges/ok.png"
       inkscape:export-xdpi="90"
       inkscape:export-ydpi="90" />
    <path
       style="fill:url(#linearGradient2870);fill-opacity:1;fill-rule:nonzero;stroke:none;stroke-width:1px;stroke-linecap:butt;stroke-linejoin:miter;stroke-opacity:1;filter:url(#filter2914)"
       d="M 1176.9589,331.03617 C 1183.8349,333.55704 1190.3813,336.7809 1196.9589,340.03617 C 1187.6331,347.04319 1178.7201,354.57332 1169.8652,362.16117 C 1170.8235,371.84867 1171.7819,381.53617 1172.7402,391.22367 C 1186.9976,377.04387 1204.4451,366.57907 1220.3652,354.47367 C 1232.8334,362.40037 1240.9315,376.17886 1247.6777,388.16117 C 1247.8973,378.6516 1251.7184,369.4414 1251.4277,359.84867 C 1247.4971,354.02958 1244.484,347.80205 1240.7089,341.84867 C 1248.4517,338.41521 1256.0862,334.82945 1263.9902,331.84867 C 1263.5527,321.50492 1263.1152,311.16117 1262.6777,300.81742 C 1248.5867,306.90896 1234.347,313.01725 1221.6777,321.78617 C 1208.0977,312.73873 1193.3194,305.46106 1178.4589,298.97367 C 1177.959,309.66117 1177.4589,320.34867 1176.9589,331.03617 z"
       id="path2858"
       inkscape:export-filename="/home/carles/ubuntucat/freevial/preguntador/imatges/nook.png"
       inkscape:export-xdpi="90"
       inkscape:export-ydpi="90" />
    <path
       style="fill:url(#linearGradient2892);fill-opacity:1;fill-rule:nonzero;stroke:none;stroke-width:1px;stroke-linecap:butt;stroke-linejoin:miter;stroke-opacity:1;filter:url(#filter2910)"
       d="M 1104.0431,298.91483 C 1084.6715,308.7094 1068.4409,323.10599 1053.5181,338.55402 C 1047.304,345.22843 1039.786,351.69411 1034.9806,358.97733 C 1036.0102,361.731 1035.3867,368.43001 1031.0118,365.94608 C 1026.9561,360.76586 1023.7276,354.64148 1018.0431,350.85233 C 1012.1928,346.21971 1005.421,342.64811 998.79313,339.22733 C 998.84413,344.53416 997.78583,350.34393 998.51183,355.35233 C 1013.344,362.19975 1028.4299,372.19086 1034.8556,387.85233 C 1048.0824,371.78927 1064.3236,358.15295 1079.8395,344.18512 C 1087.7131,338.21006 1096.4305,333.37245 1105.2931,328.91483 C 1104.8045,319.07629 1104.9289,307.99782 1104.0431,298.91483 z"
       id="path2872"
       inkscape:export-filename="/home/carles/ubuntucat/freevial/preguntador/imatges/ok.png"
       inkscape:export-xdpi="90"
       inkscape:export-ydpi="90" />
  </g>
</svg>
